<svg width="1094" height="805" viewBox="0 0 1094 805" fill="none" xmlns="http://www.w3.org/2000/svg">
<path d="M19.1679 57.2854L51.8209 28.9169C65.8279 16.7477 83.2281 9.16392 101.677 7.18717L150.205 1.98768C162.546 0.665432 174.983 0.494793 187.355 1.47798L297.411 10.2237L398.421 10.2235C417.268 10.2235 436.021 12.8875 454.123 18.1366L460.961 20.1196C479.062 25.3686 497.815 28.0327 516.662 28.0327H584.874C598.097 28.0327 611.202 25.5468 623.507 20.7047C640.947 13.8414 659.901 11.7482 678.419 14.6403L749.12 25.6826C759.136 27.247 769.02 29.5709 778.684 32.634L812.031 43.2033L953.349 84.8435C962.236 87.4623 970.337 92.2409 976.929 98.7526C981.639 103.406 985.488 108.855 988.299 114.85L991.096 120.815C993.223 125.351 995.714 129.709 998.543 133.845L1048.43 206.782L1059.94 220.944C1080.96 246.799 1086.27 282.028 1073.81 312.93C1069.43 323.81 1067.18 335.432 1067.18 347.162V372.978C1067.18 380.869 1068.02 388.737 1069.68 396.45C1074.01 416.432 1072.73 437.218 1065.99 456.52L1058.83 477.025C1046.91 511.178 1052.31 548.992 1073.3 578.449L1085.27 595.233C1090.95 603.202 1094 612.744 1094 622.53V635.011C1094 641.972 1090.72 648.527 1085.15 652.699C1079.57 656.871 1076.29 663.425 1076.29 670.386V686.925C1076.29 692.539 1075.44 698.12 1073.75 703.476L1071.88 709.41C1058.24 752.773 1015.95 780.537 970.739 775.821L965.345 775.258H935.278C923.481 775.258 911.708 776.302 900.095 778.377L842.39 788.689C837.801 789.509 833.29 790.716 828.905 792.298L802.218 801.92C786.974 807.417 769.919 803.197 758.998 791.224C752.314 783.896 743.15 779.306 733.278 778.341L657.905 770.974C634.191 768.655 610.253 770.594 587.22 776.697L571.248 780.929C548.795 786.879 525.478 788.871 502.342 786.818L469.738 783.925H450.18C439.994 783.925 429.823 783.147 419.755 781.598L403.287 779.063C386.905 776.542 370.233 776.566 353.859 779.135C333.689 782.3 313.102 781.598 293.195 777.066L285.251 775.258L241.954 766.699C222.973 762.947 203.278 766.873 187.187 777.616C175.17 785.64 161.045 789.922 146.596 789.922H119.053C109.376 789.922 100.069 786.208 93.0497 779.547L89.7874 776.451C79.9601 767.125 77.1909 752.562 82.9092 740.28C87.0632 731.358 86.8117 721.007 82.2293 712.297L73.3372 695.396L41.5025 671.474C37.4341 668.417 34.0343 664.56 31.512 660.14C26.3906 651.165 25.2213 640.468 28.2827 630.599L45.5251 575.013L58.2794 536.062C68.0727 506.154 68.2774 473.934 58.865 443.904L56.0847 435.034C49.1921 413.044 48.803 389.53 54.9643 367.324L59.0368 352.645C67.891 320.733 59.1143 286.52 35.9918 262.811C27.7288 254.338 21.1581 244.367 16.6322 233.432L4.24737 203.509C-2.2134 187.898 -1.05297 170.172 7.38778 155.538L11.7914 147.903C19.0011 135.403 18.8218 119.966 11.3236 107.637C1.31793 91.184 4.63157 69.9145 19.1679 57.2854Z" fill="url(#paint0_linear_3_13)"/>
<defs>
<linearGradient id="paint0_linear_3_13" x1="508.888" y1="-25.7243" x2="508.888" y2="919.142" gradientUnits="userSpaceOnUse">
<stop stop-color="#B4DDE0" stop-opacity="0.4"/>
<stop offset="1" stop-color="#F6EFD3" stop-opacity="0.4"/>
</linearGradient>
</defs>
</svg>
