<svg width="757" height="589" viewBox="0 0 757 589" fill="none" xmlns="http://www.w3.org/2000/svg">
<path d="M736.855 147.643L676.521 65.5725C664.984 49.8778 649.113 37.8946 630.859 31.0946L547.388 0L429.976 37.6554C421.981 40.2196 413.694 41.7666 405.312 42.2599L135.985 58.1106C106.074 59.871 78.5275 74.9514 60.9281 99.2016L19.803 155.868C5.13434 176.08 -1.44061 201.049 1.37142 225.864L18.7981 379.647C21.3373 402.054 31.3757 422.946 47.2836 438.929L166.961 559.177C189.936 582.261 222.713 592.711 254.809 587.184L409.513 560.546C415.118 559.581 420.795 559.096 426.482 559.096H583.589C628.151 559.096 667.336 529.61 679.677 486.791L752.373 234.569C760.966 204.755 755.233 172.642 736.855 147.643Z" fill="url(#paint0_linear_3_7)"/>
<defs>
<linearGradient id="paint0_linear_3_7" x1="451.37" y1="-77.4984" x2="451.37" y2="716.861" gradientUnits="userSpaceOnUse">
<stop stop-color="#8F979B" stop-opacity="0.4"/>
<stop offset="1" stop-color="#F8DBDA" stop-opacity="0.4"/>
</linearGradient>
</defs>
</svg>
